<svg xmlns="http://www.w3.org/2000/svg" width="52" height="52" viewBox="0 0 26 26">
    <path d="M 15 0 L 0 2.875 L 0 23.125 L 15 26 L 15 0 z M 16 3 L 16 5.96875 L 19.03125 5.96875 L 19.03125 8 L 16 8 L 16 10 L 19 10 L 19 12 L 16 12 L 16 14 L 19 14 L 19 16 L 16 16 L 16 18 L 19 18 L 19 20 L 16 20 L 16 23 L 25.15625 23 C 25.61725 23 26 22.604 26 22.125 L 26 3.875 C 26 3.396 25.61725 3 25.15625 3 L 16 3 z M 20 6 L 24 6 L 24 8 L 20 8 L 20 6 z M 3.09375 7.9375 L 5.84375 7.9375 L 7.3125 11 C 7.4255 11.24 7.535 11.51475 7.625 11.84375 C 7.682 11.64575 7.81375 11.35975 7.96875 10.96875 L 9.5625 7.9375 L 12.09375 7.9375 L 9.0625 12.96875 L 12.1875 18.09375 L 9.5 18.09375 L 7.75 14.78125 C 7.684 14.65825 7.60225 14.42275 7.53125 14.09375 L 7.5 14.09375 C 7.467 14.24875 7.40425 14.4965 7.28125 14.8125 L 5.53125 18.09375 L 2.8125 18.09375 L 6.03125 13.03125 L 3.09375 7.9375 z M 20 10 L 24 10 L 24 12 L 20 12 L 20 10 z M 20 14 L 24 14 L 24 16 L 20 16 L 20 14 z M 20 18 L 24 18 L 24 20 L 20 20 L 20 18 z"/>
</svg>